<?xml version="1.0" encoding="utf-8"?>
<!-- Generator: Adobe Illustrator 26.5.0, SVG Export Plug-In . SVG Version: 6.00 Build 0)  -->
<svg version="1.1" xmlns="http://www.w3.org/2000/svg" xmlns:xlink="http://www.w3.org/1999/xlink" x="0px" y="0px"
	 viewBox="0 0 158.67 158.67" style="enable-background:new 0 0 158.67 158.67;" xml:space="preserve">
<style type="text/css">
	.st0{fill:#32383A;}
	.st1{fill:#FFFFFF;}
	.st2{fill:#F5F7F9;}
	.st3{clip-path:url(#SVGID_00000135691122712412046520000013316190295410248108_);}
	.st4{clip-path:url(#SVGID_00000084497732768084577320000003147428063312417711_);}
	.st5{fill:#FFFFFF;stroke:#32383A;stroke-width:5;stroke-linecap:round;stroke-linejoin:round;stroke-miterlimit:10;}
	.st6{fill:#F5F7F9;stroke:#32383A;stroke-width:5;stroke-linecap:round;stroke-linejoin:round;stroke-miterlimit:10;}
	.st7{fill:none;stroke:#32383A;stroke-width:2;stroke-linecap:round;stroke-miterlimit:10;}
	.st8{fill:none;stroke:#32383A;stroke-width:4;stroke-linecap:round;stroke-linejoin:round;stroke-miterlimit:10;}
	.st9{fill:#F5F7F9;stroke:#040000;stroke-width:0.7259;stroke-miterlimit:10;}
	.st10{fill:#FFFFFF;stroke:#040000;stroke-width:0.7259;stroke-miterlimit:10;}
	.st11{fill:#F5F7F9;stroke:#040000;stroke-width:0.4603;stroke-miterlimit:10;}
	.st12{fill:#FFFFFF;stroke:#040000;stroke-width:0.4603;stroke-miterlimit:10;}
	.st13{fill:none;stroke:#32383A;stroke-miterlimit:10;}
	
		.st14{clip-path:url(#SVGID_00000151531328253233182630000012925245807384566962_);fill:#FFFFFF;stroke:#32383A;stroke-width:10;stroke-linecap:round;stroke-linejoin:round;stroke-miterlimit:10;}
	.st15{clip-path:url(#SVGID_00000151531328253233182630000012925245807384566962_);}
	.st16{fill:none;stroke:#32383A;stroke-width:5;stroke-miterlimit:10;}
	.st17{fill:none;stroke:#32383A;stroke-width:5;stroke-miterlimit:10;stroke-dasharray:11.831,11.831;}
	.st18{fill:none;stroke:#32383A;stroke-width:5.2149;stroke-miterlimit:10;}
	
		.st19{clip-path:url(#SVGID_00000151531328253233182630000012925245807384566962_);fill:none;stroke:#32383A;stroke-width:10;stroke-linecap:round;stroke-linejoin:round;stroke-miterlimit:10;}
	.st20{display:none;}
	.st21{display:inline;}
	
		.st22{display:inline;clip-path:url(#SVGID_00000039815116163093491110000014274001893236292021_);fill:#FFFFFF;stroke:#32383A;stroke-width:10;stroke-linecap:round;stroke-linejoin:round;stroke-miterlimit:10;}
	.st23{display:inline;clip-path:url(#SVGID_00000039815116163093491110000014274001893236292021_);}
	.st24{fill:none;stroke:#32383A;stroke-width:6.5397;stroke-miterlimit:10;}
	
		.st25{display:inline;clip-path:url(#SVGID_00000039815116163093491110000014274001893236292021_);fill:none;stroke:#32383A;stroke-width:10;stroke-linecap:round;stroke-linejoin:round;stroke-miterlimit:10;}
	
		.st26{clip-path:url(#SVGID_00000065050130394237132540000010629710887756558234_);fill:#FFFFFF;stroke:#32383A;stroke-width:10;stroke-linecap:round;stroke-linejoin:round;stroke-miterlimit:10;}
	.st27{clip-path:url(#SVGID_00000065050130394237132540000010629710887756558234_);}
	
		.st28{clip-path:url(#SVGID_00000065050130394237132540000010629710887756558234_);fill:none;stroke:#32383A;stroke-width:10;stroke-linecap:round;stroke-linejoin:round;stroke-miterlimit:10;}
	
		.st29{clip-path:url(#SVGID_00000096769367192006583330000000211380514653298324_);fill:#FFFFFF;stroke:#32383A;stroke-width:10;stroke-linecap:round;stroke-linejoin:round;stroke-miterlimit:10;}
	.st30{clip-path:url(#SVGID_00000096769367192006583330000000211380514653298324_);}
	
		.st31{clip-path:url(#SVGID_00000096769367192006583330000000211380514653298324_);fill:none;stroke:#32383A;stroke-width:10;stroke-linecap:round;stroke-linejoin:round;stroke-miterlimit:10;}
	.st32{fill:#FFFFFF;stroke:#32383A;stroke-width:9.1454;stroke-linecap:round;stroke-linejoin:round;stroke-miterlimit:10;}
	.st33{fill:#F5F7F9;stroke:#32383A;stroke-width:9.1454;stroke-linecap:round;stroke-linejoin:round;stroke-miterlimit:10;}
	.st34{fill:#FFFFFF;stroke:#32383A;stroke-width:4.5727;stroke-linecap:round;stroke-linejoin:round;stroke-miterlimit:10;}
	.st35{fill:#F5F7F9;stroke:#32383A;stroke-width:10;stroke-linecap:round;stroke-linejoin:round;stroke-miterlimit:10;}
	.st36{fill:#F5F7F9;stroke:#32383A;stroke-width:6.7122;stroke-linecap:round;stroke-linejoin:round;stroke-miterlimit:10;}
	.st37{fill:#FFFFFF;stroke:#32383A;stroke-width:9.0578;stroke-linecap:round;stroke-linejoin:round;stroke-miterlimit:10;}
	.st38{fill:#F5F7F9;stroke:#32383A;stroke-width:7.9037;stroke-linecap:round;stroke-linejoin:round;stroke-miterlimit:10;}
	.st39{fill:none;stroke:#32383A;stroke-width:7.9037;stroke-linecap:round;stroke-linejoin:round;stroke-miterlimit:10;}
	.st40{fill:none;stroke:#FFFFFF;stroke-width:3;stroke-linecap:round;stroke-linejoin:round;stroke-miterlimit:10;}
	.st41{fill:none;stroke:#32383A;stroke-width:3;stroke-linecap:round;stroke-linejoin:round;stroke-miterlimit:10;}
	.st42{fill:#FFFFFF;stroke:#32383A;stroke-width:10;stroke-linecap:round;stroke-linejoin:round;stroke-miterlimit:10;}
	.st43{fill:none;stroke:#32383A;stroke-width:5;stroke-linecap:round;stroke-linejoin:round;stroke-miterlimit:10;}
	.st44{fill:none;stroke:#32383A;stroke-width:8;stroke-linecap:round;stroke-linejoin:round;stroke-miterlimit:10;}
	.st45{fill:#F5F7F9;stroke:#32383A;stroke-width:5;stroke-miterlimit:10;}
	.st46{fill:#FFFFFF;stroke:#32383A;stroke-width:4.8436;stroke-miterlimit:10;}
	.st47{fill:#FFFFFF;stroke:#32383A;stroke-width:3.2291;stroke-miterlimit:10;}
	.st48{fill:none;stroke:#32383A;stroke-width:10;stroke-miterlimit:10;}
	.st49{fill:none;stroke:#32383A;stroke-width:5;stroke-linecap:round;stroke-miterlimit:10;}
	.st50{fill:#FFFFFF;stroke:#32383A;stroke-width:8.0727;stroke-miterlimit:10;}
	.st51{fill:none;stroke:#32383A;stroke-width:1.6145;stroke-miterlimit:10;}
	.st52{fill:none;stroke:#FFFFFF;stroke-width:3.2291;stroke-miterlimit:10;}
	
		.st53{clip-path:url(#SVGID_00000041258843543478174730000016684716794113392545_);fill:#FFFFFF;stroke:#32383A;stroke-width:10;stroke-linecap:round;stroke-linejoin:round;stroke-miterlimit:10;}
	.st54{clip-path:url(#SVGID_00000041258843543478174730000016684716794113392545_);}
	
		.st55{clip-path:url(#SVGID_00000041258843543478174730000016684716794113392545_);fill:none;stroke:#32383A;stroke-width:10;stroke-linecap:round;stroke-linejoin:round;stroke-miterlimit:10;}
	
		.st56{clip-path:url(#SVGID_00000078736298237329484780000010143087262740343203_);fill:#FFFFFF;stroke:#32383A;stroke-width:10;stroke-linecap:round;stroke-linejoin:round;stroke-miterlimit:10;}
	.st57{clip-path:url(#SVGID_00000078736298237329484780000010143087262740343203_);}
	
		.st58{clip-path:url(#SVGID_00000078736298237329484780000010143087262740343203_);fill:none;stroke:#32383A;stroke-width:10;stroke-linecap:round;stroke-linejoin:round;stroke-miterlimit:10;}
</style>
<g id="圖層_1">
	<g>
		<g>
			<circle class="st0" cx="79.34" cy="79.34" r="79.33"/>
		</g>
		<g>
			<path class="st1" d="M39.13,63.09l0.34,2.32l9.14-1.33l1.02,7l-9.14,1.33l0.98,6.74l-9.86,1.43l-3.58-24.61l19.21-2.8l1.25,8.55
				L39.13,63.09z"/>
			<path class="st1" d="M75.24,61.2l-1.96,2.56l2.61,1.92l1.21,8.34l-9.44,1.37l-0.93-6.38l-2.88,0.42l0.93,6.41l-8.85,1.29
				l-3.61-24.82l18.44-2.68l3.2,2.84L75.24,61.2z M66.1,61.35l-0.56-3.83l-3.71,0.54l0.56,3.83L66.1,61.35z"/>
			<path class="st1" d="M100.47,62.71l1.12,7.72l-19.3,2.81L78.71,48.6l19.18-2.79l1.12,7.72l-9.94,1.45l0.25,1.72l9.71-1.41
				l0.82,5.64l-9.71,1.41l0.27,1.84L100.47,62.71z"/>
			<path class="st1" d="M124.93,59.15l1.12,7.72l-19.3,2.81l-3.59-24.64l19.18-2.79l1.12,7.72l-9.94,1.45l0.25,1.72l9.71-1.41
				l0.82,5.64l-9.71,1.41l0.27,1.84L124.93,59.15z"/>
			<path class="st1" d="M32.24,95.26l2.03-3.96l9.94-1.45l1.92,1.54l0.68-0.1l1.4-2.02l10.21-1.49L61.51,91l3.08,21.17l-8.94,1.3
				l-2.37-16.3l-1.93,0.28l2.33,16l-7.6,1.11l-2.33-16l-1.93,0.28l2.37,16.3l-8.88,1.29L32.24,95.26z"/>
			<path class="st1" d="M76.77,85.05l3.63,24.91l-10.33,1.5l-3.63-24.91L76.77,85.05z"/>
			<path class="st1" d="M104.39,81.3l3.57,24.55l-7.6,1.11l-6.33-7.69l-0.62,0.09l1.22,8.4l-8.79,1.28l-3.57-24.52l7.87-1.15
				l6.18,7.65l0.65-0.09l-1.22-8.37L104.39,81.3z"/>
			<path class="st1" d="M130.64,86.12l-5.08,0.74l2.34,16.09l-9.83,1.43l-2.34-16.09l-5.08,0.74l-1.25-8.58l19.98-2.91L130.64,86.12
				z"/>
		</g>
	</g>
</g>
<g id="bkup">
</g>
</svg>
