<?xml version="1.0" encoding="utf-8"?>
<!-- Generator: Adobe Illustrator 26.5.0, SVG Export Plug-In . SVG Version: 6.00 Build 0)  -->
<svg version="1.1" xmlns="http://www.w3.org/2000/svg" xmlns:xlink="http://www.w3.org/1999/xlink" x="0px" y="0px"
	 viewBox="0 0 534.65 725.72" style="enable-background:new 0 0 534.65 725.72;" xml:space="preserve">
<style type="text/css">
	.st0{fill:#32383A;}
	.st1{fill:#FFFFFF;}
	.st2{fill:#F5F7F9;}
	.st3{clip-path:url(#SVGID_00000101076888328129689420000002346019009722195864_);}
	.st4{clip-path:url(#SVGID_00000132779038738223191570000002483960959898377636_);}
	.st5{fill:#FFFFFF;stroke:#32383A;stroke-width:5;stroke-linecap:round;stroke-linejoin:round;stroke-miterlimit:10;}
	.st6{fill:#F5F7F9;stroke:#32383A;stroke-width:5;stroke-linecap:round;stroke-linejoin:round;stroke-miterlimit:10;}
	.st7{fill:none;stroke:#32383A;stroke-width:2;stroke-linecap:round;stroke-miterlimit:10;}
	.st8{fill:none;stroke:#32383A;stroke-width:4;stroke-linecap:round;stroke-linejoin:round;stroke-miterlimit:10;}
	.st9{fill:#F5F7F9;stroke:#040000;stroke-width:0.7259;stroke-miterlimit:10;}
	.st10{fill:#FFFFFF;stroke:#040000;stroke-width:0.7259;stroke-miterlimit:10;}
	.st11{fill:#F5F7F9;stroke:#040000;stroke-width:0.4603;stroke-miterlimit:10;}
	.st12{fill:#FFFFFF;stroke:#040000;stroke-width:0.4603;stroke-miterlimit:10;}
	.st13{fill:none;stroke:#32383A;stroke-miterlimit:10;}
	
		.st14{clip-path:url(#SVGID_00000181773547698211563280000003190702847102948754_);fill:#FFFFFF;stroke:#32383A;stroke-width:10;stroke-linecap:round;stroke-linejoin:round;stroke-miterlimit:10;}
	.st15{clip-path:url(#SVGID_00000181773547698211563280000003190702847102948754_);}
	.st16{fill:none;stroke:#32383A;stroke-width:5;stroke-miterlimit:10;}
	.st17{fill:none;stroke:#32383A;stroke-width:5;stroke-miterlimit:10;stroke-dasharray:11.831,11.831;}
	.st18{fill:none;stroke:#32383A;stroke-width:5.2149;stroke-miterlimit:10;}
	
		.st19{clip-path:url(#SVGID_00000181773547698211563280000003190702847102948754_);fill:none;stroke:#32383A;stroke-width:10;stroke-linecap:round;stroke-linejoin:round;stroke-miterlimit:10;}
	.st20{display:none;}
	.st21{display:inline;}
	
		.st22{display:inline;clip-path:url(#SVGID_00000129202886076446136330000015658898356621578916_);fill:#FFFFFF;stroke:#32383A;stroke-width:10;stroke-linecap:round;stroke-linejoin:round;stroke-miterlimit:10;}
	.st23{display:inline;clip-path:url(#SVGID_00000129202886076446136330000015658898356621578916_);}
	.st24{fill:none;stroke:#32383A;stroke-width:6.5397;stroke-miterlimit:10;}
	
		.st25{display:inline;clip-path:url(#SVGID_00000129202886076446136330000015658898356621578916_);fill:none;stroke:#32383A;stroke-width:10;stroke-linecap:round;stroke-linejoin:round;stroke-miterlimit:10;}
	
		.st26{clip-path:url(#SVGID_00000143615441942979189860000002059158986390754691_);fill:#FFFFFF;stroke:#32383A;stroke-width:10;stroke-linecap:round;stroke-linejoin:round;stroke-miterlimit:10;}
	.st27{clip-path:url(#SVGID_00000143615441942979189860000002059158986390754691_);}
	
		.st28{clip-path:url(#SVGID_00000143615441942979189860000002059158986390754691_);fill:none;stroke:#32383A;stroke-width:10;stroke-linecap:round;stroke-linejoin:round;stroke-miterlimit:10;}
	
		.st29{clip-path:url(#SVGID_00000127020194911153963970000000087458752607136414_);fill:#FFFFFF;stroke:#32383A;stroke-width:10;stroke-linecap:round;stroke-linejoin:round;stroke-miterlimit:10;}
	.st30{clip-path:url(#SVGID_00000127020194911153963970000000087458752607136414_);}
	
		.st31{clip-path:url(#SVGID_00000127020194911153963970000000087458752607136414_);fill:none;stroke:#32383A;stroke-width:10;stroke-linecap:round;stroke-linejoin:round;stroke-miterlimit:10;}
	.st32{fill:#FFFFFF;stroke:#32383A;stroke-width:9.1454;stroke-linecap:round;stroke-linejoin:round;stroke-miterlimit:10;}
	.st33{fill:#F5F7F9;stroke:#32383A;stroke-width:9.1454;stroke-linecap:round;stroke-linejoin:round;stroke-miterlimit:10;}
	.st34{fill:#FFFFFF;stroke:#32383A;stroke-width:4.5727;stroke-linecap:round;stroke-linejoin:round;stroke-miterlimit:10;}
	.st35{fill:#F5F7F9;stroke:#32383A;stroke-width:10;stroke-linecap:round;stroke-linejoin:round;stroke-miterlimit:10;}
	.st36{fill:#F5F7F9;stroke:#32383A;stroke-width:6.7122;stroke-linecap:round;stroke-linejoin:round;stroke-miterlimit:10;}
	.st37{fill:#FFFFFF;stroke:#32383A;stroke-width:9.0578;stroke-linecap:round;stroke-linejoin:round;stroke-miterlimit:10;}
	.st38{fill:#F5F7F9;stroke:#32383A;stroke-width:7.9037;stroke-linecap:round;stroke-linejoin:round;stroke-miterlimit:10;}
	.st39{fill:none;stroke:#32383A;stroke-width:7.9037;stroke-linecap:round;stroke-linejoin:round;stroke-miterlimit:10;}
	.st40{fill:none;stroke:#FFFFFF;stroke-width:3;stroke-linecap:round;stroke-linejoin:round;stroke-miterlimit:10;}
	.st41{fill:none;stroke:#32383A;stroke-width:3;stroke-linecap:round;stroke-linejoin:round;stroke-miterlimit:10;}
	.st42{fill:#FFFFFF;stroke:#32383A;stroke-width:10;stroke-linecap:round;stroke-linejoin:round;stroke-miterlimit:10;}
	.st43{fill:none;stroke:#32383A;stroke-width:5;stroke-linecap:round;stroke-linejoin:round;stroke-miterlimit:10;}
	.st44{fill:none;stroke:#32383A;stroke-width:8;stroke-linecap:round;stroke-linejoin:round;stroke-miterlimit:10;}
	.st45{fill:#F5F7F9;stroke:#32383A;stroke-width:5;stroke-miterlimit:10;}
	.st46{fill:#FFFFFF;stroke:#32383A;stroke-width:4.8436;stroke-miterlimit:10;}
	.st47{fill:#FFFFFF;stroke:#32383A;stroke-width:3.2291;stroke-miterlimit:10;}
	.st48{fill:none;stroke:#32383A;stroke-width:10;stroke-miterlimit:10;}
	.st49{fill:none;stroke:#32383A;stroke-width:5;stroke-linecap:round;stroke-miterlimit:10;}
	.st50{fill:#FFFFFF;stroke:#32383A;stroke-width:8.0727;stroke-miterlimit:10;}
	.st51{fill:none;stroke:#32383A;stroke-width:1.6145;stroke-miterlimit:10;}
	.st52{fill:none;stroke:#FFFFFF;stroke-width:3.2291;stroke-miterlimit:10;}
	
		.st53{clip-path:url(#SVGID_00000107564665031946835730000011148564401398247093_);fill:#FFFFFF;stroke:#32383A;stroke-width:10;stroke-linecap:round;stroke-linejoin:round;stroke-miterlimit:10;}
	.st54{clip-path:url(#SVGID_00000107564665031946835730000011148564401398247093_);}
	
		.st55{clip-path:url(#SVGID_00000107564665031946835730000011148564401398247093_);fill:none;stroke:#32383A;stroke-width:10;stroke-linecap:round;stroke-linejoin:round;stroke-miterlimit:10;}
	
		.st56{clip-path:url(#SVGID_00000138565962150690202100000005702188563377328021_);fill:#FFFFFF;stroke:#32383A;stroke-width:10;stroke-linecap:round;stroke-linejoin:round;stroke-miterlimit:10;}
	.st57{clip-path:url(#SVGID_00000138565962150690202100000005702188563377328021_);}
	
		.st58{clip-path:url(#SVGID_00000138565962150690202100000005702188563377328021_);fill:none;stroke:#32383A;stroke-width:10;stroke-linecap:round;stroke-linejoin:round;stroke-miterlimit:10;}
</style>
<g id="圖層_1">
	<g>
		<g>
			<g>
				<path class="st1" d="M520.12,721.02l-505.36,0.17c-5.52,0-10-4.47-10-10L4.53,14.58c0-5.52,4.47-10,10-10l505.36-0.17
					c5.52,0,10,4.47,10,10l0.23,696.61C530.12,716.54,525.64,721.02,520.12,721.02z"/>
				<path class="st0" d="M13.23,725.64c-3.3-0.34-6.36-1.79-8.74-4.17c-2.74-2.74-4.26-6.39-4.26-10.27L0,14.58
					C0,10.7,1.51,7.05,4.25,4.31C7,1.56,10.64,0.05,14.52,0.05l505.36-0.17c8,0.01,14.53,6.51,14.53,14.52l0.23,696.61
					c0,8.01-6.51,14.53-14.52,14.53l0,0l-505.36,0.17C14.25,725.72,13.73,725.69,13.23,725.64z M520.46,8.97
					c-0.19-0.02-0.38-0.03-0.57-0.03L14.53,9.11c-1.46,0-2.84,0.57-3.87,1.6c-1.03,1.03-1.6,2.41-1.6,3.87l0.23,696.61
					c0,1.46,0.57,2.83,1.6,3.87c1.03,1.03,2.4,1.59,3.87,1.6l505.36-0.17c3.02,0,5.47-2.46,5.47-5.47l-0.23-696.61
					C525.36,11.59,523.21,9.26,520.46,8.97z M520.12,721.03L520.12,721.03L520.12,721.03z"/>
			</g>
			<g>
				<rect x="33.26" y="43.27" class="st2" width="468.11" height="612.36"/>
				<path class="st0" d="M32.95,659.64c-1.99-0.21-3.54-1.89-3.54-3.93l-0.2-612.36c0-1.05,0.42-2.05,1.16-2.79
					c0.74-0.74,1.75-1.16,2.79-1.16l468.11-0.15c1.05,0,2.05,0.42,2.79,1.16c0.74,0.74,1.16,1.75,1.16,2.79l0.2,612.36
					c0,2.18-1.77,3.95-3.95,3.95l-468.11,0.15C33.22,659.66,33.09,659.65,32.95,659.64z M37.11,47.3l0.2,604.45l460.21-0.15
					l-0.2-604.46L37.11,47.3z"/>
			</g>
			<g>
				<g>
					<path class="st0" d="M222.03,28.72c-1.99-0.21-3.54-1.89-3.54-3.93c0-2.18,1.77-3.95,3.95-3.95l59.69-0.02
						c2.2,0,3.95,1.77,3.95,3.95c0,2.18-1.77,3.95-3.95,3.95l-59.69,0.02C222.31,28.74,222.17,28.73,222.03,28.72z"/>
				</g>
				<g>
					<path class="st0" d="M299.19,28.69c-1.03-0.11-2.01-0.63-2.66-1.44c-0.65-0.8-0.96-1.86-0.86-2.89
						c0.03-0.26,0.07-0.52,0.15-0.76c0.08-0.25,0.18-0.48,0.3-0.71c0.12-0.23,0.27-0.44,0.43-0.64c0.17-0.2,0.35-0.39,0.55-0.55
						c1.01-0.82,2.41-1.11,3.66-0.72c0.24,0.08,0.48,0.18,0.71,0.3c0.23,0.12,0.44,0.27,0.64,0.43c0.2,0.17,0.39,0.35,0.55,0.56
						c0.17,0.2,0.31,0.41,0.43,0.65c0.13,0.22,0.22,0.47,0.3,0.71c0.07,0.25,0.12,0.5,0.14,0.76c0.02,0.25,0.03,0.52,0,0.77
						c-0.11,1.03-0.63,2.01-1.44,2.66C301.27,28.49,300.21,28.8,299.19,28.69z"/>
				</g>
			</g>
			<g>
				<circle class="st2" cx="267.43" cy="688.52" r="18.54"/>
				<path class="st0" d="M265.24,709.45c-10.58-1.1-18.85-10.06-18.86-20.92c0-5.62,2.19-10.91,6.16-14.88
					c3.97-3.98,9.26-6.17,14.88-6.17c11.62-0.02,21.05,9.44,21.05,21.04l0,0c0,5.62-2.18,10.91-6.16,14.88
					c-3.97,3.98-9.26,6.17-14.88,6.17C266.7,709.56,265.96,709.53,265.24,709.45z M269.1,672.56c-0.55-0.06-1.11-0.09-1.68-0.09
					c-4.28,0-8.31,1.67-11.34,4.7c-3.03,3.03-4.7,7.06-4.7,11.35c0,8.85,7.2,16.03,16.05,16.04c4.28,0,8.31-1.67,11.34-4.7
					c3.03-3.03,4.7-7.06,4.7-11.35l0,0C283.47,680.23,277.16,673.4,269.1,672.56z"/>
			</g>
		</g>
		<g>
			<path class="st0" d="M54.16,86.42l0-6.79l9.7,0l0-1.47l-6.93,0l-2.74-2.39l0-8.77l3.29-3.26l14.69,0l0,6.36l-9.64,0l0,1.47l7.5,0
				l2.74,2.39l0,9.21l-3.29,3.26L54.16,86.42z"/>
			<path class="st0" d="M97.91,63.89l0.01,22.46l-6.95,0l-4.68-7.71l-0.57,0l0,7.69l-8.04,0l-0.01-22.43l7.2,0l4.54,7.66l0.6,0
				l0-7.66L97.91,63.89z"/>
			<path class="st0" d="M120.44,79.3l0,7.06l-17.65,0.01l-0.01-22.54l17.55-0.01l0,7.06l-9.1,0l0,1.57l8.88,0l0,5.16l-8.88,0l0,1.68
				L120.44,79.3z"/>
			<path class="st0" d="M144.45,67.05l0.01,19.28l-8.15,0l0-4.29l-2.88,0l0,4.29l-8.12,0l-0.01-19.28l2.39-3.32l14.37,0
				L144.45,67.05z M136.3,75.09l0-4.21l-2.88,0l0,4.21L136.3,75.09z"/>
			<path class="st0" d="M169.36,70.9l-3.01,3.88l3.02,3.88l0,7.66l-9.23,0l0-7.01l-2.01,0l0,7.01l-8.66,0l-0.01-22.52l8.66,0l0,7.06
				l2.01,0l0-7.06l9.23,0L169.36,70.9z"/>
			<path class="st0" d="M194.18,67.03l0,11.57l-3.2,3.31l-8.34,0l0,4.48l-8.39,0l-0.01-22.71l16.73,0L194.18,67.03z M185.49,70.59
				l-2.85,0l0,4.37l2.85,0L185.49,70.59z"/>
			<path class="st0" d="M216.57,79.27l0,7.06l-17.65,0.01l-0.01-22.54l17.55,0l0,7.06l-9.1,0l0,1.57l8.88,0l0,5.16l-8.88,0l0,1.68
				L216.57,79.27z"/>
			<path class="st0" d="M240.58,67.02l0.01,19.28l-8.15,0l0-4.29l-2.88,0l0,4.29l-8.12,0l-0.01-19.28l2.39-3.31l14.37-0.01
				L240.58,67.02z M232.44,75.06l0-4.21l-2.88,0l0,4.21L232.44,75.06z"/>
			<path class="st0" d="M265.49,70.87l-3.01,3.88l3.02,3.88l0,7.66l-9.23,0l0-7.01l-2.01,0l0,7.01l-8.66,0l-0.01-22.52l8.66,0
				l0,7.06l2.01,0l0-7.06l9.23,0L265.49,70.87z"/>
		</g>
	</g>
</g>
<g id="bkup">
</g>
</svg>
